<?xml version="1.0" encoding="utf-8"?>
<!-- Generator: Adobe Illustrator 16.0.0, SVG Export Plug-In . SVG Version: 6.00 Build 0)  -->
<!DOCTYPE svg PUBLIC "-//W3C//DTD SVG 1.1//EN" "http://www.w3.org/Graphics/SVG/1.1/DTD/svg11.dtd">
<svg version="1.1" id="Layer_1" xmlns="http://www.w3.org/2000/svg" xmlns:xlink="http://www.w3.org/1999/xlink" x="0px" y="0px"
	 width="288px" height="77px" viewBox="0 0 288 77" enable-background="new 0 0 288 77" xml:space="preserve">
<g>
	<path fill="#BE2026" d="M53.096,52.477L31.663,18.998L9.875,52.477H1.136L28.77,10.908h5.727l27.457,41.568H53.096z"/>
</g>
<g>
	<path fill="#1E2528" d="M80.316,52.477c-9.881,0-14.82-2.991-14.82-8.975V19.883c0-5.983,4.939-8.975,14.82-8.975h32.535v6.141
		H80.316c-4.645,0-6.967,0.945-6.967,2.834v23.619c0,1.889,2.322,2.834,6.967,2.834h18.363c4.645,0,6.968-0.905,6.968-2.716V29.803
		h7.853V43.62c0,5.904-4.94,8.856-14.821,8.856H80.316z"/>
	<path fill="#1E2528" d="M120.763,52.477V10.908h42.75v6.141h-34.897v10.392h33.125v6.141h-33.125v12.754h34.897v6.141H120.763z"/>
	<path fill="#1E2528" d="M193.979,52.477l-27.634-41.568h8.916l21.729,33.479l21.493-33.479h8.68l-27.456,41.568H193.979z"/>
	<path fill="#1E2528" d="M243.755,52.477c-2.361,0-4.369-0.245-6.022-0.738c-1.653-0.491-3.002-1.181-4.045-2.066
		s-1.801-1.938-2.273-3.159c-0.472-1.22-0.708-2.577-0.708-4.074V20.946c0-1.496,0.236-2.854,0.708-4.074
		c0.473-1.22,1.23-2.273,2.273-3.159s2.392-1.574,4.045-2.067c1.653-0.492,3.661-0.738,6.022-0.738h27.457
		c2.361,0,4.369,0.246,6.022,0.738c1.653,0.493,3.001,1.181,4.045,2.067c1.042,0.886,1.801,1.939,2.272,3.159
		c0.473,1.221,0.709,2.579,0.709,4.074v21.493c0,1.497-0.236,2.854-0.709,4.074c-0.472,1.221-1.23,2.273-2.272,3.159
		c-1.044,0.886-2.392,1.575-4.045,2.066c-1.653,0.493-3.661,0.738-6.022,0.738H243.755z M276.407,20.887
		c0-2.558-1.732-3.838-5.195-3.838h-27.457c-3.464,0-5.196,1.28-5.196,3.838v21.611c0,2.559,1.732,3.838,5.196,3.838h27.457
		c3.463,0,5.195-1.279,5.195-3.838V20.887z"/>
</g>
<g opacity="0.2">
	<path fill="#1E2528" d="M144.596,60.972h1.504l4.799,8.695l4.799-8.695h1.504l-5.482,9.898h-1.641L144.596,60.972z"/>
	<path fill="#1E2528" d="M158.284,66.604c0-2.529,1.75-2.816,3.418-2.816h1.887c2.105,0,3.623,0.533,3.623,3.021v0.779h-7.752v0.438
		c0,1.586,0.766,1.996,2.816,1.996h1.613c1.477,0,2.078-0.191,2.146-1.258h1.176v0.137c0,1.6-1.326,2.078-3.514,2.078h-2.133
		c-1.531,0-3.281-0.287-3.281-2.857V66.604z M166.036,66.167c0-0.711-0.533-1.422-2.447-1.422h-1.723
		c-1.859,0-2.297,0.301-2.406,1.887h6.576V66.167z"/>
	<path fill="#1E2528" d="M169.155,63.897h1.094v1.012h0.027c0.438-0.902,1.326-1.121,2.133-1.121h1.107
		c2.201,0,2.926,0.711,2.926,2.42v0.834h-1.094v-0.301c0-1.723-0.355-1.996-2.447-1.996h-0.725c-1.244,0-1.846,0.793-1.846,1.695
		v4.43h-1.176V63.897z"/>
	<path fill="#1E2528" d="M177.579,68.464h1.094v0.342c0,0.861,0.451,1.217,1.654,1.217h2.516c1.764,0,2.324-0.068,2.324-1.107V68.86
		c0-0.67-0.191-1.039-1.6-1.039h-3.623c-1.654,0-2.27-0.533-2.27-1.859v-0.41c0-1.135,0.643-1.764,3.541-1.764h1.805
		c2.652,0,3.021,0.766,3.021,1.75v0.369h-1.094v-0.068c0-1.066-0.711-1.094-1.996-1.094h-2.051c-1.682,0-2.051,0.164-2.051,0.957
		v0.26c0,0.574,0.191,0.902,1.422,0.902h3.104c1.764,0,2.967,0.178,2.967,2.064v0.027c0,1.955-1.805,2.023-3.24,2.023h-2.16
		c-1.736,0-3.363,0-3.363-2.092V68.464z"/>
	<path fill="#1E2528" d="M188.464,60.972h1.176v1.285h-1.176V60.972z M188.464,63.897h1.176v6.973h-1.176V63.897z"/>
	<path fill="#1E2528" d="M191.705,66.604c0-2.529,1.777-2.816,3.5-2.816h1.969c2.188,0,3.049,0.889,3.049,2.365v0.191h-1.094v-0.164
		c0-1.162-0.766-1.436-1.941-1.436h-2.16c-1.107,0-2.146,0.164-2.146,1.9v1.463c0,1.559,0.957,1.914,2.379,1.914h1.982
		c1.094,0,2.01-0.328,2.01-1.463v-0.232h1.094v0.205c0,1.764-0.875,2.447-3.063,2.447h-2.652c-1.053,0-2.926-0.287-2.926-2.816
		V66.604z"/>
	<path fill="#1E2528" d="M202.152,60.972h1.176v4.129h0.027c0.438-1.08,1.354-1.313,2.816-1.313h1.682
		c2.201,0,2.898,1.107,2.898,2.365v4.717h-1.176v-4.43c0-1.025-0.287-1.695-2.57-1.695h-0.301c-2.748,0-3.377,0.52-3.377,2.16v3.965
		h-1.176V60.972z"/>
	<path fill="#1E2528" d="M212.655,66.604c0-2.529,1.75-2.816,3.418-2.816h1.887c2.105,0,3.623,0.533,3.623,3.021v0.779h-7.752v0.438
		c0,1.586,0.766,1.996,2.816,1.996h1.613c1.477,0,2.078-0.191,2.146-1.258h1.176v0.137c0,1.6-1.326,2.078-3.514,2.078h-2.133
		c-1.531,0-3.281-0.287-3.281-2.857V66.604z M220.407,66.167c0-0.711-0.533-1.422-2.447-1.422h-1.723
		c-1.859,0-2.297,0.301-2.406,1.887h6.576V66.167z"/>
	<path fill="#1E2528" d="M223.526,63.897h1.094v1.012h0.027c0.438-0.902,1.326-1.121,2.133-1.121h1.107
		c2.201,0,2.926,0.711,2.926,2.42v0.834h-1.094v-0.301c0-1.723-0.355-1.996-2.447-1.996h-0.725c-1.244,0-1.846,0.793-1.846,1.695
		v4.43h-1.176V63.897z"/>
	<path fill="#1E2528" d="M239.716,69.667h-0.027c-0.438,1.08-1.354,1.313-2.816,1.313h-1.764c-2.201,0-2.898-1.107-2.898-2.365
		v-4.717h1.176v4.43c0,1.025,0.287,1.695,2.57,1.695h0.301c2.748,0,3.377-0.52,3.377-2.16v-3.965h1.176v6.973h-1.094V69.667z"/>
	<path fill="#1E2528" d="M243.026,63.897h1.094v1.203h0.027c0.438-1.08,1.354-1.313,2.816-1.313h1.764
		c2.201,0,2.898,1.107,2.898,2.365v4.717h-1.176v-4.43c0-1.025-0.287-1.695-2.57-1.695h-0.301c-2.748,0-3.377,0.52-3.377,2.16v3.965
		h-1.176V63.897z"/>
	<path fill="#1E2528" d="M262.442,70.856c0,2.105-1.846,2.529-3.309,2.529h-2.652c-2.16,0-2.734-1.189-2.734-2.078v-0.232h1.094
		v0.191c0,0.902,0.93,1.162,2.023,1.162h1.148c2.324,0,3.254-0.027,3.254-1.914v-1.039h-0.027c-0.246,0.656-0.725,1.08-2.365,1.08
		h-2.42c-1.955,0-2.926-0.998-2.926-2.789v-1.162c0-2.529,1.832-2.816,3.145-2.816h2.502c0.889,0,1.777,0.219,2.146,1.354h0.027
		v-1.244h1.094V70.856z M261.267,66.878c0.027-1.299-0.438-2.133-2.092-2.133h-2.393c-1.203,0-2.064,0.328-2.078,1.477v1.285
		c-0.014,1.6,0.561,2.092,1.996,2.092h2.27c1.682,0,2.297-0.67,2.297-1.873V66.878z"/>
	<path fill="#1E2528" d="M264.346,66.604c0-2.529,1.75-2.816,3.418-2.816h1.887c2.105,0,3.623,0.533,3.623,3.021v0.779h-7.752v0.438
		c0,1.586,0.766,1.996,2.816,1.996h1.613c1.477,0,2.078-0.191,2.146-1.258h1.176v0.137c0,1.6-1.326,2.078-3.514,2.078h-2.133
		c-1.531,0-3.281-0.287-3.281-2.857V66.604z M272.098,66.167c0-0.711-0.533-1.422-2.447-1.422h-1.723
		c-1.859,0-2.297,0.301-2.406,1.887h6.576V66.167z"/>
	<path fill="#1E2528" d="M275.121,63.897h1.094v1.203h0.027c0.438-1.08,1.354-1.313,2.816-1.313h1.764
		c2.201,0,2.898,1.107,2.898,2.365v4.717h-1.176v-4.43c0-1.025-0.287-1.695-2.57-1.695h-0.301c-2.748,0-3.377,0.52-3.377,2.16v3.965
		h-1.176V63.897z"/>
</g>
</svg>
